<svg id="Layer_1" data-name="Layer 1" xmlns="http://www.w3.org/2000/svg" viewBox="0 0 1039.24 528.74"><defs><style>.cls-1{fill:#7800ff;}.cls-2,.cls-3{fill:none;stroke-miterlimit:10;stroke-width:2px;isolation:isolate;opacity:0.8;}.cls-2{stroke:#000;}.cls-3{stroke:#0d0015;}</style></defs><path class="cls-1" d="M309.73,249.22a34.16,34.16,0,0,0-2.25-8.61,3.86,3.86,0,0,0-2-2.44,4.19,4.19,0,0,0-2,0l-10.09,1.55a3.83,3.83,0,0,0-2.3.89c-1.31,1.38,0,3.61-.06,5.51,0,2.15-1.95,3.89-4,4.46a15.08,15.08,0,0,1-6.38-.08l-14.11-2.19a23.29,23.29,0,0,0,10.67-7.12c1.86-2.2,2.84-6.3.16-7.35a6.73,6.73,0,0,0-2.45-.19c-6.39.05-11.42-5.29-17.4-7.54a19.24,19.24,0,0,0-21.65,6.46l7.51.36a3.29,3.29,0,0,1,2,.54c1.65,1.35-.4,4-.17,6.07.3,2.75,4,3.34,6.71,3.61s6.25,2.52,4.93,5c-13.85,4.77-27.94-9.32-42.48-7.59-3.68.44-7.16,1.89-10.75,2.8-21.95,5.55-44.64-9.27-67.07-6.13A85.32,85.32,0,0,0,122,241c-3,1-6.23,2.09-8.45,4.41s-3.06,6.3-1,8.73a49.07,49.07,0,0,1-17.22-1.64,9.64,9.64,0,0,1,5,8.5,102.5,102.5,0,0,0-26.17,8,44.36,44.36,0,0,0,5.42,7.22l-11.45,7.35c3.87,1,5.87,6.25,3.62,9.54,4-1.78,6.5-6.4,10.78-7.33,2.81-.62,5.67.53,8.34,1.61s5.59,2.13,8.35,1.32,4.79-4.39,3-6.67a142.66,142.66,0,0,1,36.25-5.66,4.53,4.53,0,0,1,2.75.52c1.59,1.11,1.17,3.5,1.09,5.45s1.43,4.5,3.16,3.62c-2,1.77-.29,5.11,1.67,7s4.32,4.43,3.12,6.86c-.31.63-.85,1.14-1.15,1.78-.89,1.88.53,4.08,2.19,5.33s3.71,2.12,4.87,3.86.63,4.76-1.44,5l-5.88-7.47a15.4,15.4,0,0,0-4,7.53c6.24,5.1,7.18,15.48,2,21.62-2.67,3.13-6.47,5-9.78,7.48s-6.38,5.93-6.37,10.05c0,7.11-.56,13.72,2.1,20.32a314,314,0,0,0,17,35.44c1.68,3,3.85,6.3,7.26,6.82q-6.45-15.71-11.62-31.92c2.24,0,4.83.19,6.15,2,1.09,1.5.85,3.55,1.19,5.38a16.57,16.57,0,0,0,2.13,5l20.55,36.61c1.7,3,3.65,6.29,6.91,7.52,2.08.78,4.49.63,6.41,1.76,1.5.89,2.51,2.47,4,3.3,4.33,2.36,10.35-2.17,14.39.65,1.16.81,1.9,2.09,3,3,3.74,3.24,9.87,1.07,14.18,3.49,2.78,1.55,4.22,4.66,5.7,7.48,3.72,7.07,9.73,14,17.69,14.55,2.5.17,5-.3,7.49.26s4.85,2.68,4.46,5.16c-.67,4.24,1.43,8.89.86,13.15-1,7.76-12,11.17-13,18.94-.2,1.7.12,3.46-.28,5.12-.5,2-2,3.7-2.58,5.73-1,3.85,1.73,7.67,4.75,10.26s6.64,4.82,8.29,8.44c1.75,3.82.89,8.28,1.46,12.45,1.24,9.1,9.1,15.85,17.19,20.2,2.46,1.32,5.11,2.61,6.7,4.91,2.09,3,1.88,7,2.57,10.54,1.71,8.78,9.1,16,9.31,25,.15,6.36-3.38,12.12-5.49,18.12a42.23,42.23,0,0,0,3.45,35c1.57,2.66,3.46,5.17,4.58,8.06,2,5.16,1.35,11,3.18,16.24,2.43,6.89,9.11,12.59,8.47,19.87,3,6.3,9.72,9.39,16.45,11.26l12.07,3.36c2.31.64,4.72,1.29,7.07.82s4.6-2.41,4.54-4.81c-5.92-1.33-12-2.75-16.9-6.36s-8.22-10-6.37-15.79c.86-2.68,2.69-5.77.95-8-1-1.26-2.81-1.59-3.93-2.75-1.75-1.8-1.15-4.83.11-7s3.07-4.12,3.58-6.58a6.87,6.87,0,0,0-3.22-7.14,16.89,16.89,0,0,0,6-3.83c1.57-1.79,2.3-4.55,1.06-6.59,3.67.46,8,.69,10.41-2.12,1.92-2.24,1.79-5.59,1-8.44s-2-5.62-2.08-8.57a156.69,156.69,0,0,0,25.35-.86,16.47,16.47,0,0,0-7.71-9.66c3.81-.64,7.28-5.2,8.49-8.88s.89-7.67.15-11.46a6.1,6.1,0,0,1-.11-3c.43-1.37,1.77-2.21,3-2.92L388,593.68a11,11,0,0,0,3-2.24c2-2.32,1.69-5.84.67-8.72s-2.64-5.6-3-8.63c-1.17-9.07,8.54-15.57,11.82-24.11,1.28-3.35,1.54-7,1.79-10.57.27-3.84.29-8.31-2.66-10.78s-7.25-1.85-10.21-4.06c-2.72-2-3.65-6-6.62-7.59-2.69-1.49-6.07-.54-9.06-1.24-5.28-1.23-8.6-7.31-14-7.87-3-.32-6.48,1.17-9-.6-2.2-1.56-2.28-4.7-2.7-7.36a20.54,20.54,0,0,0-16.58-16.63c-3.13-.5-6.54-.31-9.2-2s-3.94-5-6.06-7.42c-3.42-3.89-8.8-5.28-13.84-6.46l-20.51-4.82c-3.64-.86-8.33-1.31-10.28,1.88a14.68,14.68,0,0,0-1.22,3.82,11.84,11.84,0,0,1-11.14,8.39,13.22,13.22,0,0,0-7.77-6c-2.08-.58-4.31-.64-6.29-1.5a8.83,8.83,0,0,1-4.07-11.81c.08-.15.15-.3.23-.44a11,11,0,0,0-1.87-13.23c-3.49-3.13-8.54-3.88-13.21-3.57-1.23-2.67.82-5.69,3-7.63s4.88-3.85,5.36-6.75c.76-4.56-5.06-8-9.48-6.66s-7.24,5.65-9.1,9.88c-1.07,2.43-2,5-3.67,7s-4.4,3.51-7,2.86c-3.64-.93-5-5.26-5.85-8.93-1.08-4.92-2.17-9.91-1.95-14.94s1.93-10.2,5.64-13.61c6.05-5.56,15.33-5,23.49-4.12-1.93-2.18-1.45-5.84.61-7.89a9,9,0,0,1,8.12-2,11.24,11.24,0,0,1,6.3,3.76c2.32,2.83,3,6.65,4.73,9.86s5.69,5.95,8.92,4.22c2.79-1.48,3.23-5.35,2.54-8.43s-2.17-6.08-1.92-9.23c.48-6,6.71-9.63,12.21-12.1s11.79-5.81,12.66-11.77a10.8,10.8,0,0,1,.65-3.42A6.76,6.76,0,0,1,284,357.9c16.05-10.6,32.36-21.33,50.7-27.12.95-.31,1.06,0,2-.21,1.36-.78.45-3-.85-3.84s-3.05-1.54-3.38-3.08c-.24-1.13.42-2.24.6-3.38.42-2.81-2.94-5.4-5.55-4.28-1.47-1.95,1.45-4.22,3.8-4.86a102.65,102.65,0,0,1,21.67-3.54,3.85,3.85,0,0,1,2.47.42c1.23.85,1.07,2.8.2,4s-2.23,2-3.32,3a9.06,9.06,0,0,0-2.34,9.11c3.82,1.94,8,4,12.22,3.26s8-5.45,6-9.25c-1.86-3.54-7.43-4.34-8.39-8.22-1.12-4.54,5.31-8.58,3.86-13-.63-2-2.57-3.1-4.07-4.51A12.22,12.22,0,0,1,357,278.85a15.4,15.4,0,0,1-13.52-4.23c-3.24-3.27-5.82-8.42-10.41-8.27-4.22.14-7.85,5-11.79,3.55-1-.37-2-1.12-2.93-.68a2.43,2.43,0,0,0-1.09,1.82c-1,4.79.72,10.24-1.89,14.38-2.84,4.5-9.41,5.13-12.85,9.19-1.87,2.2-2.59,5.17-4.31,7.49s-5.37,3.81-7.43,1.78A10.23,10.23,0,0,0,288,291.43a27.44,27.44,0,0,0-6.14-3,36.57,36.57,0,0,1-6.86-3.83,6.73,6.73,0,0,1-2.52-2.69,6.18,6.18,0,0,1,.17-4.26,17.43,17.43,0,0,1,13.87-11.5c2.75-.37,5.94-.24,7.76-2.33,1-1.11,1.46-2.78,2.86-3.23a4.22,4.22,0,0,1,2.64.33l10.24,3.6a7.17,7.17,0,0,0,3.65.61,2.47,2.47,0,0,0,2.14-2.6c-.32-1.71-2.94-2.52-2.7-4.24a2.84,2.84,0,0,1,.85-1.44,36.63,36.63,0,0,1,29-11.47c1.3,2.12-.75,4.64-2.45,6.45s-3.07,5-1,6.45a5.6,5.6,0,0,0,2.73.61,24,24,0,0,1,7.26,2.2q5.31,2.33,10.42,5.06c-.31-2.24-.59-4.61.26-6.71s3.27-3.74,5.38-2.92,3.08,3.48,5.25,3.73c2.89.33,4-3.95,2.82-6.6s-3.6-4.86-3.8-7.77c-.13-2,.61-4.39-.95-5.58a4.35,4.35,0,0,0-1.85-.64L328,232.49c-2.32-.43-5.68-.1-5.78,2.25-.06,1.32,1.12,2.62.6,3.83s-2.38,1.17-3.71,1.63c-2.07.71-3.1,3.16-2.9,5.33a14.81,14.81,0,0,0,2.45,6C316.12,250.48,312.27,250.28,309.73,249.22Z" transform="translate(-68.09 -200.71)"/><path class="cls-1" d="M278.55,216a12.67,12.67,0,0,0-13.91,4.16c-.64.85-1.18,2-.64,2.94.77,1.31,2.74.79,4.19.32a10.56,10.56,0,0,1,6.62-.16c1.36.47,2.58,1.3,3.95,1.75a4,4,0,0,0,4.06-.59c.94-1,1-2.45,1-3.79a3.08,3.08,0,0,0-.78-2.51,4,4,0,0,0-1.8-.53,6.18,6.18,0,0,1-3.61-2.11" transform="translate(-68.09 -200.71)"/><path class="cls-1" d="M292.64,212.12a3.21,3.21,0,0,0-3.11,4.53,13,13,0,0,0,5.2.34,4.45,4.45,0,0,0,3.64-3.33,8.4,8.4,0,0,1-5.93-1.14" transform="translate(-68.09 -200.71)"/><path class="cls-1" d="M339.92,205.56a59.34,59.34,0,0,0-13.34,4.54,10,10,0,0,1,6.4,10.06,5.24,5.24,0,0,0,.06,2.49c.49,1.19,1.91,1.64,3.16,1.94a21.14,21.14,0,0,0,6.93.89,7.06,7.06,0,0,0,5.73-3.51,24.86,24.86,0,0,1,1.2-2.82c3-4.55,11.88,1,15.09-3.45,1.13-1.55,1-3.88,2.5-5.11a5.63,5.63,0,0,1,2.58-1,181.23,181.23,0,0,1,19.54-2.78c3.11-.27,7.17-1.39,7.19-4.51A54.17,54.17,0,0,0,362.42,207c-3.85,1.93-8.94,6-12.65,3.43-1.39-1-1.32-3.54-3.23-4.61S342,205.12,339.92,205.56Z" transform="translate(-68.09 -200.71)"/><path class="cls-1" d="M378.22,212.73l5.5,1.05a7.12,7.12,0,0,0-7.43,6.8,5.63,5.63,0,0,0,0,.92c5.14,1.72,10.76.05,16.18.28s11.73,4.1,10.81,9.45c-.28,1.61-1.22,3.23-.73,4.8.34,1.1,1.31,1.88,1.85,2.89,1.14,2.11.23,4.77-1.21,6.69s-3.37,3.45-4.63,5.48c-3.14,5.07-1.36,11.62.51,17.28a15.16,15.16,0,0,0,2.93,5.85c2.77,2.95,7.29,3.2,11.34,3.26,2.95,0,6.32-.1,8.18-2.38,2.43-3,.73-7.63,2.33-11.13,1.46-3.17,5.16-4.53,8.52-5.5,6.15-1.77,12.42-3.28,18.23-6,7.22-3.32,14-8.49,21.9-8.92,2.22-.12,4.5.14,6.65-.47s4.18-2.46,4-4.69c-.14-1.89-1.75-3.29-3-4.72s-2.25-3.64-1.09-5.15l20.79-3.89c-1.47-4-2.62-9.3.77-11.92,1.22-.94,2.86-1.32,3.9-2.46,1.77-1.94.88-5.29-1.17-7s-4.81-2-7.44-2.25c-9.11-.76-18.29-.26-27.42.24L415,204.28c-3.6.2-7.75-.1-11.05,1.12-2.79,1-4.77,2.95-8,3.62C390,210.25,383.56,209.42,378.22,212.73Z" transform="translate(-68.09 -200.71)"/><path class="cls-1" d="M476.71,256.18a2.2,2.2,0,0,0-1.6.36,2,2,0,0,0-.52,1.24,8.1,8.1,0,0,0,1.18,5.83,5.71,5.71,0,0,0,5.23,2.5c2.47-.31,4.3-2.42,6.57-3.45,3.51-1.59,18.41-4.06,8.1-9.63-3.55-1.92-5.84-.23-8.64,1A19.66,19.66,0,0,1,476.71,256.18Z" transform="translate(-68.09 -200.71)"/><path class="cls-1" d="M567,209.58a5.91,5.91,0,0,0-2.87,2.49,2.52,2.52,0,0,0,.95,3.34,3.7,3.7,0,0,0,1.4.22l4.89.15c2.08.06,4.68.5,5.24,2.51.41,1.48-.52,3.39.6,4.46a3.25,3.25,0,0,0,1.67.65,11.39,11.39,0,0,0,4.93.15c3.55-1,1.68-3.12,2.81-5.06,1.71-3,1.41-1.17,4.44-2.86,2.23-1.25,5.11-3.53,3.25-6.72C591,203.36,571.74,207.2,567,209.58Z" transform="translate(-68.09 -200.71)"/><path class="cls-1" d="M663.52,206.79l-2.85.38c-6.4.85-12.84,1.72-19,3.64a31.85,31.85,0,0,0,8.33,2.05,24.45,24.45,0,0,1,4.66.66c2.73.81,5.47,2.9,8.1,1.83,1.64-.66,2.17-2.36,3.52-3.26.94-.63,4.48-1.63,4.87-2.26C674.34,204.75,666,206.46,663.52,206.79Z" transform="translate(-68.09 -200.71)"/><path class="cls-1" d="M676,219.7a52.69,52.69,0,0,0-10.48,7.68c-1.34,1.25-2.7,2.81-2.58,4.64.16,2.43,2.75,3.84,5,4.79l9.08,3.84c1.1-1.55.09-3.69-1-5.22s-2.5-3.29-2-5.12c.57-2.1,3.13-2.81,5.27-3.18,3.49-.58,12.91-.54,11.77-6.16C689.68,214.34,679.49,217.74,676,219.7Z" transform="translate(-68.09 -200.71)"/><path class="cls-1" d="M674.16,594.83c-.86,2.5-.94,5.45.55,7.64,1.68,2.45,5,3.36,7.94,2.74a14.31,14.31,0,0,0,7.38-4.74,25.37,25.37,0,0,0,4.24-6.5,51,51,0,0,0,3.14-11.51l2.82-14.8c.63-3.31.61-13.45-5.47-10.15-1.66.9-5.51,8-7.25,10-3.14,3.65-3.56,7.18-5.21,11.6C680.23,584.68,676.08,589.29,674.16,594.83Z" transform="translate(-68.09 -200.71)"/><path class="cls-1" d="M995.35,670.59a45,45,0,0,1-5.78-2.75,48.3,48.3,0,0,0-2.93,16l13.61-7.7c2-1.16,4.37-2.77,4.33-5.13a1.62,1.62,0,0,0-.75-1.47,1.86,1.86,0,0,0-1-.11c-2,.17-3.86,1.16-5.76,1.85s-4.13,1.06-5.88,0" transform="translate(-68.09 -200.71)"/><path class="cls-1" d="M1067.17,675.16a29.44,29.44,0,0,0-4.36,1.57c-3.13,1.59-5.26,4.61-8.07,6.7s-5.93,3.11-9.11,4.17c-.93.83-.5,2.5.51,3.22a6.31,6.31,0,0,0,3.6.81c3.3.07,6.78.11,9.68-1.49a30.51,30.51,0,0,0,4.55-3.62c3.39-2.82,7.45-4.68,11.47-6.48a13.13,13.13,0,0,0,4-2.39c2.52-2.49,2.7-6.33-.94-7.18C1075.55,669.79,1070,674.25,1067.17,675.16Z" transform="translate(-68.09 -200.71)"/><path class="cls-1" d="M1098.91,654.43a11.37,11.37,0,0,0-3.48-9.31c0,3.43-.14,7.08-2.07,9.92-1.37,2-3.52,3.38-5,5.3s-2.17,5-.41,6.67a6.71,6.71,0,0,0,3.92,1.35c3.52.41,7.58.64,10.05-1.9,1.34-1.38,2-3.44,3.64-4.45a4.46,4.46,0,0,0,1.6-1.15c.67-1.07-.4-2.49-1.61-2.88s-2.55-.21-3.77-.58-2.33-1.73-1.71-2.84" transform="translate(-68.09 -200.71)"/><path class="cls-1" d="M1042.5,528.76a15.69,15.69,0,0,1-5.63.33c-3.13-.57-5.57-2.93-8.09-4.86a35.6,35.6,0,0,0-20.85-7.29c-6.86-.13-13.79,1.73-20.53.43.44,2.45,2.54,4.29,4.78,5.38s4.7,1.64,7,2.71a16.6,16.6,0,0,1,8,8.37,23.8,23.8,0,0,0,2.27,5c2.24,3,6.49,3.68,10.24,3.43,4.88-.32,10-1.73,14.53.09,3.48,1.4,6,4.44,8.88,6.81s7,4.12,10.32,2.41a17.07,17.07,0,0,1-11.81-16.43c3.27.3,12.69.19,12.18-5.37C1053.35,525.06,1045.31,528.25,1042.5,528.76Z" transform="translate(-68.09 -200.71)"/><path class="cls-1" d="M999.72,567.08c.58-3.19,3.76-6,2.77-9.08-.69-2.14-3.16-3.19-5.4-3.24s-4.43.61-6.67.68a31.85,31.85,0,0,0-4.37.06c-4.45.73-7.18,5.39-11.37,7-2.55,1-5.41.82-8,1.51-6,1.58-9.82,7.26-14,11.84a50,50,0,0,1-25.38,14.8c-3.42.79-7.09,1.3-9.81,3.52-3.59,2.94-4.48,8-5.28,12.55a207.39,207.39,0,0,1-10.09,37l14.27,1.82c2.71.35,5.52.69,8.14-.11a23.53,23.53,0,0,0,5.35-2.86,53.51,53.51,0,0,1,20.88-7.53c3.74-.52,7.65-.61,11.16.78s6.52,4.54,6.81,8.3a8.77,8.77,0,0,1,8.76,2.13,15.25,15.25,0,0,1,4.19,8.35c.37,1.95.75,4.29,2.56,5.11,1.48.67,3.17,0,4.79-.18,5.49-.44,10,6,15.43,4.86,5.79-1.18,7.21-9.84,12.85-11.58,3.24-1,7.78.22,9.34-2.8,1.36-2.66-1.37-5.72-1.08-8.7.34-3.66,4.66-5.21,8-6.78,11.49-5.39,16.94-20.84,11.37-32.24-3.29-6.76-9.78-12.07-11-19.49-.92-5.71,1.33-12.37-2.31-16.86-1.85-2.29-5-3.55-6.09-6.28-.69-1.71-.41-3.66-.79-5.48s-2-3.71-3.74-3.24c-5.2,1.37-6.86,17.43-9.65,21.33C1007.07,578.29,998.39,574.38,999.72,567.08Z" transform="translate(-68.09 -200.71)"/><path class="cls-1" d="M903.63,534.83c-1.78-.5-3.72-1-5.42-.28s-2.7,3.21-1.33,4.45c10.68-.41,21.44-.83,32,.62,12.21,1.68,24.29,5.82,36.55,4.6a185.09,185.09,0,0,0-21.32-5l-12-2.29a91.45,91.45,0,0,0-9.75-1.51C915.54,534.91,910.36,536.72,903.63,534.83Z" transform="translate(-68.09 -200.71)"/><path class="cls-1" d="M914.33,497.6c-.89-.07-2-.14-2.45.63s.06,1.69-.17,2.51c-.32,1.11-1.79,1.4-2.94,1.25s-2.4-.52-3.42,0a2.89,2.89,0,0,0-1.12,3.29,8.46,8.46,0,0,0,2,3.15,32,32,0,0,0,5.13,5.14c3.67,2.71,8.65,4,11,8a5.46,5.46,0,0,0,1.46,2c1.11.7,2.56.16,3.76-.38l4.19-1.92a4.73,4.73,0,0,0,2-1.33c1-1.3.37-3.15-.43-4.55s-1.84-2.85-1.66-4.45c.3-2.86,4-4,5.5-6.41s.53-5.64.7-8.54c.21-3.39,2.34-7.79-1.09-10.32-2.91-2.15-5.69-.17-7.78,2.21C924.51,492.86,922.42,498.28,914.33,497.6Z" transform="translate(-68.09 -200.71)"/><path class="cls-1" d="M939.77,447c1.43,2.74,4.42,4.37,6,7,1.69,2.9,1.5,6.63,3.33,9.44s5.67,4.4,6.73,7.67c1.15,3.57-1.46,7.92.62,11a4.63,4.63,0,0,0,6.49.87,2.48,2.48,0,0,0,.3-.25,5,5,0,0,0-.2-6.95c-1.24-1.13-3-1.62-4-2.93a6.08,6.08,0,0,1-1-2.55,16.5,16.5,0,0,1,.26-8,3.64,3.64,0,0,0,.2-2.09c-.47-1.34-2.29-1.44-3.57-2.07-2.91-1.42-2.84-5.52-2.33-8.72-.34,2.13-7.93-1.5-8.73-2.7-1.57-2.4-.71-7-1-9.67C939.34,438.78,938,443.65,939.77,447Z" transform="translate(-68.09 -200.71)"/><path class="cls-1" d="M863.33,489.16c-1.4-1.57-3.51-3.21-5.38-2.26-1.44.72-1.83,2.7-1.27,4.2a9.34,9.34,0,0,0,3.06,3.65c3.91,3.22,8.12,6.13,11.54,9.89,6.1,6.71,9.34,15.77,16,22a9,9,0,0,0,5,2.72c1.93.18,4.11-1,4.33-3,.18-1.59-.93-3-2-4.19-2.58-2.81-5.41-5.39-7.84-8.32a7,7,0,0,1-2-4.19c0-1.58,1.43-3.23,3-2.84-1.86-.48-3.24-3.58-6-4.16-2.28-.48-2.84.93-5.55-.24C871,500.16,867,493.22,863.33,489.16Z" transform="translate(-68.09 -200.71)"/><path class="cls-1" d="M985.07,336.51a42.21,42.21,0,0,1-4.38-1.56c-3.85-1.15-8.94,1.67-8.42,5.66.34,2.64,2.8,4.43,4.16,6.72,2,3.41,1.48,7.73.42,11.54a9.06,9.06,0,0,1-1.46,3.28,11,11,0,0,1-3.44,2.48,45.87,45.87,0,0,0-13.49,11.46,3.25,3.25,0,0,0-.82,1.54c-.18,1.34,1.17,2.32,1.94,3.44,1.69,2.49.47,5.85.63,8.86a2.5,2.5,0,0,0,1.06,2.19c1,.52,2.23-.36,2.79-1.36,1.84-3.34.45-8.69,3.91-10.3.65-.3,1.44-.43,1.88-1,.69-.91,0-2.25.37-3.34.53-1.64,2.76-1.71,4.48-1.64a25.28,25.28,0,0,0,8.72-1.16,5.76,5.76,0,0,0,2.89-1.67c1-1.29.94-3.12.73-4.76a64.52,64.52,0,0,0-7.62-23.25c3,.39,6.34.73,9-.86,1.47-.88,3.23-3.53,2.5-5.33C989.72,334.59,987.64,337,985.07,336.51Z" transform="translate(-68.09 -200.71)"/><path class="cls-1" d="M596.22,381.42c.36,1.95.72,4,.08,5.87s-2.65,3.44-4.54,2.87c-1.47-.45-2.32-1.93-3.37-3.05-5.8-6.27-18.91-2.64-22.5-10.4-1.46-3.17-.47-7-1.46-10.3a9.17,9.17,0,0,0-9.29-6.31,18.81,18.81,0,0,0-5.34,1.6,134.88,134.88,0,0,1-35.4,8.85,29.19,29.19,0,0,0-6.81,1.24c-5,1.81-8.39,6.43-10.82,11.15s-4.21,9.83-7.46,14c-3.42,4.4-8.21,7.49-12.68,10.83a12.89,12.89,0,0,0-4.18,4.38c-1,2-.91,4.3-.84,6.51l.92,26.84c.11,3.45.26,7,1.81,10.12,1.93,3.86,5.74,6.39,8.38,9.79a19.19,19.19,0,0,1,4,12.26c-.05,1.77-.23,3.87,1.15,5a5,5,0,0,0,2.83.81l36.32,3c6.38.52,13.46,1.38,17.63,6.24,2,2.3,3.55,5.6,6.57,5.85,1.29.11,2.55-.42,3.84-.53,3.26-.25,6.13,2.22,7.94,5a21.9,21.9,0,0,1,3.52,14.08c-.29,3.11-1.26,6.14-1.47,9.26-.79,11.86,9.27,22.17,9.47,34.07.11,7-3.21,13.53-6.45,19.73,5.23,7.92,1,18.46,3,27.71,2,8.78,9.3,15.65,11.12,24.47.83,4,.88,9,4.44,11.07a10.15,10.15,0,0,0,5,1,66.26,66.26,0,0,0,30.16-6.87c4.4-2.18,9-5.44,9.73-10.29.62-3.91-1.37-8.29.65-11.69,2.38-4,8.47-3.7,12-6.79,5.68-5,1.25-14.56,3.56-21.77,2.06-6.48,9.18-9.93,12.71-15.75a27.89,27.89,0,0,0,3-8,114.46,114.46,0,0,0,3-20.42,124.85,124.85,0,0,1,.93-12.52c3.8-23.63,27.17-39.46,34.76-62.17.72-2.17,1.06-5.06-.87-6.28a5.47,5.47,0,0,0-3.67-.39l-16.74,2.11c-2.08.26-4.28.51-6.19-.35s-3.28-3.28-2.27-5.12c2.85-5.15-3-11.66-5.6-16.93a250.35,250.35,0,0,0-24.88-40.36,4.08,4.08,0,0,1-1.1-2.37l4.75.16c-1.6-5.75-4.25-12.05-9.84-14.16-3.15-1.18-6.63-.77-10-.59C616.07,384.35,605.75,382.89,596.22,381.42Z" transform="translate(-68.09 -200.71)"/><path class="cls-1" d="M625.7,251.74c2.52,2.68,5.34,5.52,9,6,6.44.83,11.07-5.83,14-11.61a5.69,5.69,0,0,0,5.93,5.25,11.73,11.73,0,0,0,4.45-1.74,87.62,87.62,0,0,1,41.58-10.75,4.5,4.5,0,0,1,3.43-4.94c2.95-.59,5.62,2,7,4.62s2.32,5.73,4.58,7.72,6.65,1.9,7.55-1-2-5.11-4.41-6.74-4.91-4.64-3.3-7.05c12.21-2.7,24.5-5.41,37-5.95a15.59,15.59,0,0,0,6.23-1.07c1.9-.94,3.42-3.06,2.9-5.12A14.11,14.11,0,0,1,747,213.81c17.34-1.44,35.78-2.66,51.15,5.5,1.84,4-7.56,7.26-5,10.83.8,1.14,2.41,1.27,3.8,1.3,10.68.19,21.42.39,32-1.22,3.86-.59,7.76-1.42,11.63-.95,6.45.8,12,5.1,18.32,6.51,2.58.57,5.48.59,7.66-.91s3.11-4.93,1.33-6.88c6-5.86,15.9-4.41,23.78-1.6s15.36,7.32,23.7,8c6,.45,12.06-1.16,18-.14,3.72.64,7.17,2.3,10.81,3.31,6.87,1.92,14.13,1.52,21.26,1.61a149.16,149.16,0,0,1,53.11,10.55,15.85,15.85,0,0,1,5.9,3.49c1.58,1.69,2.38,4.3,1.32,6.35L1008.18,257c1.65,3.24,5.9,3.79,9.36,4.91s7,4.94,5,7.92c-3.75-1.19-7.14,2.55-9,6s-4.2,7.58-8.12,7.79c-3.52.19-7.77-2.81-10.07-.14a69,69,0,0,1,8.09,12.93c2.26,4.72,3.88,10.66.82,14.91a3.92,3.92,0,0,1-2.07,1.6c-2.5.63-4.12-2.42-5.92-4.28-2.26-2.33-5.67-3-8.73-4.09s-6.28-3.25-6.52-6.49c-.15-2,.91-3.89,1.7-5.76a22.26,22.26,0,0,0,1.68-9.94c-.17-2.74-.94-5.58-2.9-7.49s-5.36-2.52-7.47-.77c-1,.82-1.77,2.12-3.05,2.17-2.26.09-4-3.85-5.81-2.5a6.17,6.17,0,0,1-.83,4.13c-5.43,4.71-13.75,2.72-20.74,4.38a38.87,38.87,0,0,0-9.46,4.13,6.12,6.12,0,0,0-2.71,2.27c-.87,1.7.09,3.87,1.63,5a13,13,0,0,0,5.37,1.83c8.52,1.61,17.16,4.11,23.89,9.58s11.13,14.52,9,22.92l-16.8-16.05q1,10.11,1.09,20.28a9.1,9.1,0,0,1-.53,3.9c-1.2,2.64-4.45,3.53-7.29,4.12a5.7,5.7,0,0,0-4.54,6.67,4.61,4.61,0,0,0,.16.64c1,3.3,3.53,5.86,5.83,8.42s4.58,5.47,4.88,8.9-2.28,7.31-5.72,7.07c-2.61-.18-4.54-2.52-5.65-4.88s-1.77-5-3.44-7c-5.06-6.08-16.41-3.47-20.94-9.95a10.23,10.23,0,0,0-2.12,9.74c2.11-1.32,5-.09,6.57,1.83s2.33,4.37,3.58,6.52c1.67,2.91,4.34,5.48,4.58,8.83a28.21,28.21,0,0,0,.06,3.79c.42,2,2.13,3.48,3.32,5.18,2.76,3.94,2.63,9.36.84,13.83s-5,8.21-8.15,11.84c-5.54,6.33-11.19,12.62-17.75,17.88-1.88,1.5-3.88,3-5,5.07s-1.23,5,.56,6.63c-1.28.07-3.58.7-4.86.76a114.09,114.09,0,0,1-.3-15.47c-5.06-2.43-10.51,4.08-9.86,9.65s4.69,10.06,7.56,14.88c2.1,3.53,3.67,7.65,3,11.69s-4.31,7.78-8.4,7.43c-6.51-.57-9.23-9.91-15.67-11a2.56,2.56,0,0,0-1.7.17c-1,.52-1.12,1.8-1.18,2.89-.26,5.35-.49,10.91,1.6,15.84,3.05,7.22,11,13.28,9.29,20.94-8.92-4.15-13.55-14.15-15.66-23.76s-2.46-19.69-6.23-28.77c-2.86,3.67-8.89.64-11.51-3.21-2.48-3.66-4-7.88-6.41-11.59s-6.1-7-10.51-7.22c-4.63-.21-8.64,3-12.17,6-2.9,2.47-5.88,5-7.57,8.44-2.47,5-1.83,10.81-1.94,16.35-.13,6-1.4,12.31-5.48,16.69s-11.62,5.91-16.12,2c-2.35-2.06-3.49-5.14-4.5-8.1a395.42,395.42,0,0,1-12.19-43.51c-.76,3.36-3.71,7.69-6.53,5.71a5.82,5.82,0,0,1-1.5-1.94c-5.26-8.91-15-14.25-24.84-17.46s-20.19-4.7-29.92-8.22a76.2,76.2,0,0,1-15.52-7.73,12.19,12.19,0,0,0-.74,12.48c2.15,3.82,7,6,11.22,4.7,2.16-.69,4-2.19,6.13-2.93s5-.38,6,1.69-.46,4.37.21,6.43c1,3.14,5.77,3.39,7.42,6.25,1.24,2.12.22,4.95-1.54,6.67s-4.11,2.66-6.26,3.85c-7,3.88-11.94,10.51-18,15.66s-14.7,8.91-22,5.61c1.73-8.77-8.71-15.21-10.64-23.94-.63-2.88-.3-5.93-1.2-8.73-1.31-4.05-4.91-6.84-7.86-9.91a38.9,38.9,0,0,1-10.67-28.31c.16-3.61.82-7.28,0-10.8s-3.73-6.92-7.34-6.76c-8.24.37-18.63,1-22.95-6.05-1.54-2.5-2.21-6.18,0-8.1,1.57-1.35,3.89-1.22,6-1l18.57,1.83c4.34.42,9,.78,12.76-1.49s5.34-8.3,1.89-11c-2.52-1.95-7-1.85-7.77-4.95-.61-2.59,2.25-5.52.71-7.68-1.11-1.55-3.6-1.12-5.11,0s-2.6,2.86-4.29,3.74c-3,1.54-6.51.08-9.69-.92s-7.47-1.08-9,1.88c-1.73,3.31,1.53,7.65-.18,11-2.27,4.39-10,1.89-13.14,5.67-3.66,4.33,2.49,10.78,1.25,16.32a10.17,10.17,0,0,1-10-.57,9.72,9.72,0,0,1-4.2-9c.31-2.49,1.61-5,.74-7.38-.71-1.9-2.61-3-4.39-4l-18-10c-1.68,3.11.44,7,3.09,9.29s6,4.1,7.71,7.17a9.41,9.41,0,0,1-3.54,12.4,2.19,2.19,0,0,1-1.79.31,2.51,2.51,0,0,1-1.16-1.56c-3.19-8.15-8-16.18-15.61-20.44s-18.62-3.38-23.63,3.79c-1.19,1.7-2,3.64-3,5.44-5.51,9.57-17.32,14.1-28.35,13.8a5.68,5.68,0,0,1-3.1-.72c-1.78-1.24-1.7-3.85-1.43-6l1.16-9.12c.24-1.84.57-3.86,2-5,2.05-1.62,5-.6,7.6-.64a9.63,9.63,0,0,0,8.74-6.74,10.85,10.85,0,0,0-3-10.79c-1.2-1.12-2.8-2.53-2.17-4a3.39,3.39,0,0,1,2.34-1.58c4.68-1.35,9.62-1.71,14.22-3.31s9.06-4.88,10.15-9.63c.33-1.45.48-3.21,1.79-3.94a5.43,5.43,0,0,1,2.07-.42,10.06,10.06,0,0,0,8.64-10.5c2.21-1.54,5.29-.41,7.43,1.23s4,3.8,6.6,4.5c4.84,1.32,9.51-3,14.52-3,2.11,0,4.29.74,6.27,0s3.21-2.72,4.75-4.2,4.25-2.38,5.67-.79l-1.21-9a17.65,17.65,0,0,0,14.37-2.6l-15.67-5.29a3.45,3.45,0,0,1-1.47-.79c-1.14-1.22,0-3.14.92-4.53,2.22-3.34,2.59-8.83-1-10.49-2.49-1.14-5.35.22-7.74,1.56l-11.43,6.37c-.37,2.18,2.29,3.41,3.94,4.87a6.62,6.62,0,0,1-4.31,11.56,8.27,8.27,0,0,1,1.47,7l-7.7.55a3.31,3.31,0,0,1-2.49-.48c-.83-.73-.72-2-.91-3.1-.46-2.62-3-4.45-5.63-4.92s-5.3.13-7.88.73a4.77,4.77,0,0,1-3.39-.08,3.39,3.39,0,0,1-1.34-1.69c-1.14-2.76-.08-6,1.75-8.35s4.32-4.07,6.56-6a38.19,38.19,0,0,0,11.37-17.64c4.24-1.77,8.62-4.19,12.86-6a39.31,39.31,0,0,1,21.15-4.1l14.35.28c4.25.08,8.61.18,12.54,1.8s7.38,5.12,7.65,9.36a2.89,2.89,0,0,1-.92,2.63,3.48,3.48,0,0,1-1.82.41C631.35,250.62,629.66,251.61,625.7,251.74Z" transform="translate(-68.09 -200.71)"/><path class="cls-1" d="M511.34,296.71a4.2,4.2,0,0,0,1.14-4.22,7.87,7.87,0,0,0-8.13,1.53,13.71,13.71,0,0,0-2.18,2.89c-1.88,3.07-3.55,6.75-2.46,10.18a2.93,2.93,0,0,0,1.33,1.82,3.66,3.66,0,0,0,1.54.24,51.51,51.51,0,0,0,6.21-.39c1.27-.15,2.74-.51,3.23-1.69.64-1.54-.91-3.3-.46-4.91a5.36,5.36,0,0,1,1.33-1.9,2.52,2.52,0,0,0,.78-2.11c-.18-.75-1.34-1.18-1.76-.53" transform="translate(-68.09 -200.71)"/><path class="cls-1" d="M522.11,282.75a17.48,17.48,0,0,0-5.63-.35,2.38,2.38,0,0,0-1.2.27,2,2,0,0,0-.74,1.07,5.31,5.31,0,0,0,3.1,6.52,6.5,6.5,0,0,1,1.92.77c1.59,1.23.57,3.76.88,5.75.33,2.24,2.5,4.12,2.1,6.35-.31,1.75-2.19,3.14-1.88,4.9s2.65,2.39,4.51,2.54a5.74,5.74,0,0,0,3.2-.36,5,5,0,0,0,2-2.93,18.74,18.74,0,0,0,.94-7,6.63,6.63,0,0,0-.8-3.11,17.88,17.88,0,0,0-1.85-2.13C525.11,290.84,528.86,284.65,522.11,282.75Z" transform="translate(-68.09 -200.71)"/><path class="cls-2" d="M991.17,607.78S718,451,600.35,480.68c0,0-249.26,26.82-278.15,85.84,0,0-79.24-247.62-108.13-255.87" transform="translate(-68.09 -200.71)"/><path class="cls-3" d="M322.2,566.52C368,444.36,780.7,309,780.7,309c-58.6,14.85-180.35,171.68-180.35,171.68s-257.52-187.37-386.28-170c0,0,567,18.57,777.1,297.13" transform="translate(-68.09 -200.71)"/><circle cx="145.98" cy="109.94" r="11.97"/><circle cx="254.1" cy="365.8" r="11.97"/><circle cx="712.6" cy="108.28" r="11.97"/><circle cx="923.08" cy="407.07" r="11.97"/><circle cx="532.26" cy="279.96" r="11.97"/></svg>